<svg id="Layer_1" data-name="Layer 1" xmlns="http://www.w3.org/2000/svg" viewBox="0 0 560 640"><defs><style>.cls-1{fill:#f2f2f2;}.cls-2{fill:#e6e6e6;}.cls-3{fill:#fff;stroke:#ccc;stroke-linecap:round;stroke-linejoin:round;stroke-width:6px;}.cls-4{fill:none;stroke:#f2f2f3;stroke-miterlimit:10;stroke-width:4px;}</style></defs><title>Empty_States_Graphics</title><circle class="cls-1" cx="280" cy="302" r="265"/><circle class="cls-2" cx="491" cy="459" r="20"/><circle class="cls-2" cx="483.5" cy="424.5" r="6.5"/><circle class="cls-2" cx="519.5" cy="429.5" r="11.5"/><circle class="cls-2" cx="44" cy="185" r="20"/><circle class="cls-2" cx="36.5" cy="150.5" r="6.5"/><circle class="cls-2" cx="72.5" cy="155.5" r="11.5"/><ellipse class="cls-2" cx="279.5" cy="520.5" rx="151.5" ry="9.5"/><circle class="cls-3" cx="279.5" cy="305.5" r="152"/><circle class="cls-4" cx="279.5" cy="306.5" r="123"/><path class="cls-3" d="M121,494.65,42.75,268.83s-4.59-13.23,3-15.85,36.07,27.72,65.22,111.81c7.21,20.78-8.2,28.24-8.2,28.24l33.41,96.38s2.62,7.55-4.93,10.17S121,494.65,121,494.65Z"/><path class="cls-3" d="M478.32,362.26l-63.22,136s-3.37,7.25-10.63,3.88-3.88-10.63-3.88-10.63l62.8-135.12"/><path class="cls-3" d="M500.29,348.21a22,22,0,1,1-39.9-18.54l31.19-67.11,39.9,18.54Z"/><line class="cls-3" x1="501.13" y1="268.1" x2="475.42" y2="323.42"/><line class="cls-3" x1="511.11" y1="272.74" x2="485.4" y2="328.06"/><line class="cls-3" x1="521.08" y1="277.38" x2="495.37" y2="332.69"/></svg>