<?xml version="1.0" encoding="utf-8"?>
<!-- Generator: Adobe Illustrator 22.0.1, SVG Export Plug-In . SVG Version: 6.00 Build 0)  -->
<svg version="1.1" id="Layer_1" xmlns="http://www.w3.org/2000/svg" xmlns:xlink="http://www.w3.org/1999/xlink" x="0px" y="0px"
	 viewBox="0 0 560 640" style="enable-background:new 0 0 560 640;" xml:space="preserve">
<style type="text/css">
	.st0{fill:#F2F2F2;}
	.st1{fill:#FFFFFF;}
	.st2{fill:none;stroke:#B3B3B3;stroke-width:6;stroke-linecap:round;stroke-linejoin:round;}
	.st3{fill:none;stroke:#B3B3B3;stroke-width:6;stroke-linecap:round;stroke-linejoin:round;stroke-dasharray:0.2529,12.1386;}
	.st4{fill:none;stroke:#B3B3B3;stroke-width:6;stroke-linecap:round;stroke-linejoin:round;stroke-dasharray:0.2517,12.08;}
	.st5{fill:none;stroke:#B3B3B3;stroke-width:6;stroke-linecap:round;stroke-linejoin:round;stroke-dasharray:0.2558,12.278;}
	.st6{fill:none;stroke:#B3B3B3;stroke-width:6;stroke-linecap:round;stroke-linejoin:round;stroke-dasharray:0.2472,11.8665;}
	.st7{fill:#E6E6E6;}
</style>
<circle class="st0" cx="287" cy="279" r="265"/>
<g>
	<polygon class="st1" points="132.9,543.9 132.9,110.2 441.2,110.2 441.2,543.9 290.6,393.3 	"/>
	<g>
		<polyline class="st2" points="133,543.9 132.9,543.9 132.9,543.8 		"/>
		<line class="st3" x1="132.9" y1="531.7" x2="132.9" y2="116.4"/>
		<polyline class="st2" points="132.9,110.4 132.9,110.2 133,110.2 		"/>
		<line class="st4" x1="145.1" y1="110.2" x2="435.1" y2="110.2"/>
		<polyline class="st2" points="441.1,110.2 441.2,110.2 441.2,110.4 		"/>
		<line class="st3" x1="441.2" y1="122.5" x2="441.2" y2="537.7"/>
		<polyline class="st2" points="441.2,543.8 441.2,543.9 441.1,543.9 		"/>
		<line class="st5" x1="432.4" y1="535.2" x2="295" y2="397.7"/>
		<polyline class="st2" points="290.6,393.4 290.6,393.3 290.5,393.4 		"/>
		<line class="st6" x1="281.9" y1="401.6" x2="137.3" y2="539.8"/>
	</g>
</g>
<circle class="st7" cx="498" cy="436" r="20"/>
<circle class="st7" cx="490.5" cy="401.5" r="6.5"/>
<circle class="st7" cx="526.5" cy="406.5" r="11.5"/>
<circle class="st7" cx="51" cy="162" r="20"/>
<circle class="st7" cx="43.5" cy="127.5" r="6.5"/>
<circle class="st7" cx="79.5" cy="132.5" r="11.5"/>
</svg>
