<svg id="Layer_1" data-name="Layer 1" xmlns="http://www.w3.org/2000/svg" viewBox="0 0 560 640"><defs><style>.cls-1,.cls-4{fill:#f2f2f2;}.cls-2{fill:#e6e6e6;}.cls-3,.cls-5{fill:#fff;}.cls-3,.cls-4{stroke:#ccc;}.cls-3,.cls-4,.cls-6{stroke-linecap:round;stroke-linejoin:round;stroke-width:6px;}.cls-6{fill:none;stroke:#b3b3b3;stroke-dasharray:0.25 12.19;}</style></defs><title>empty_search</title><circle class="cls-1" cx="280" cy="302" r="265"/><circle class="cls-2" cx="491" cy="459" r="20"/><circle class="cls-2" cx="483.5" cy="424.5" r="6.5"/><circle class="cls-2" cx="519.5" cy="429.5" r="11.5"/><circle class="cls-2" cx="44" cy="185" r="20"/><circle class="cls-2" cx="36.5" cy="150.5" r="6.5"/><circle class="cls-2" cx="72.5" cy="155.5" r="11.5"/><circle class="cls-3" cx="262" cy="276" r="97"/><circle class="cls-4" cx="262" cy="276" r="82"/><polyline class="cls-3" points="322.83 357 417.42 451.58 425.5 443.5 332.57 350.57"/><ellipse class="cls-2" cx="279.5" cy="451.5" rx="114.5" ry="9.5"/><circle class="cls-5" cx="341.5" cy="206.5" r="51.5"/><circle class="cls-6" cx="341.5" cy="206.5" r="51.5"/><path class="cls-2" d="M355.22,190.08q3.27,5.71,3.27,16.23t-3.27,16.2q-3.25,5.69-11.38,5.68t-11.38-5.68q-3.27-5.69-3.27-16.2t3.27-16.23q3.27-5.72,11.38-5.71T355.22,190.08Zm-16.3,27.44c.8,2.58,2.44,3.88,4.92,3.88s4.11-1.3,4.88-3.88a41.56,41.56,0,0,0,1.16-11.21q0-7.68-1.16-11.37a4.73,4.73,0,0,0-4.88-3.69,4.79,4.79,0,0,0-4.92,3.69q-1.2,3.69-1.2,11.37A40.11,40.11,0,0,0,338.92,217.52Z"/></svg>